<svg width="60" height="60" viewBox="0 0 60 60" fill="none" xmlns="http://www.w3.org/2000/svg">
<path d="M50 21.7466L32.5 31.4707V50.7481L49.2285 41.4585C49.6284 41.2364 49.8323 41.1201 49.9756 41.0288C49.9795 41.0263 49.9817 41.0214 49.9854 41.0191C49.9856 41.0153 49.9875 41.0109 49.9878 41.0069C49.998 40.8375 50 40.6037 50 40.1475V21.7466ZM29.9878 7.87697C29.8436 7.94652 29.651 8.05485 29.2725 8.26515L12.6465 17.4985L30 27.1372L47.3511 17.4985L30.7275 8.26515C30.349 8.05485 30.1564 7.94652 30.0122 7.87697C30.0078 7.87482 30.0041 7.87157 30 7.86964C29.9959 7.87157 29.9922 7.87482 29.9878 7.87697ZM10.0122 41.0069C10.0124 41.0109 10.012 41.0153 10.0122 41.0191C10.0164 41.0217 10.0198 41.0259 10.0244 41.0288C10.1677 41.1201 10.3716 41.2364 10.7715 41.4585L27.5 50.7481V31.4707L10 21.7466V40.1475C10 40.6037 10.002 40.8375 10.0122 41.0069ZM55 40.6968C54.9952 41.2824 54.9605 41.9571 54.7485 42.5986C54.5252 43.2743 54.159 43.8942 53.6768 44.4175C53.0669 45.0792 52.256 45.4963 51.6577 45.8286L33.1567 56.1069C32.5895 56.4221 31.8474 56.8643 31.0083 57.0371C30.3438 57.1738 29.6562 57.1738 28.9917 57.0371C28.1526 56.8643 27.4105 56.4221 26.8433 56.1069L8.34229 45.8286C7.74398 45.4963 6.93307 45.0792 6.32324 44.4175C5.84103 43.8942 5.4748 43.2743 5.25146 42.5986C5.0395 41.9571 5.00476 41.2824 5 40.6968V19.3027C5.00477 18.7176 5.03989 18.0444 5.25146 17.4033C5.47478 16.7275 5.84086 16.1055 6.32324 15.582C6.93311 14.9204 7.74404 14.5033 8.34229 14.1709L26.8433 3.89259C27.4104 3.57747 28.1526 3.13522 28.9917 2.96242C29.49 2.85993 30.0012 2.83308 30.5054 2.88429L31.0083 2.96242L31.3184 3.0381C32.0303 3.24296 32.6604 3.61684 33.1567 3.89259L51.6577 14.1709C52.256 14.5033 53.0669 14.9204 53.6768 15.582C54.0387 15.9748 54.3337 16.4233 54.5532 16.9077L54.7485 17.4033L54.8389 17.7256C54.9699 18.2661 54.996 18.8149 55 19.3027V40.6968Z" fill="url(#paint0_linear_17_716)"/>
<path d="M16.5649 10.0366C17.2354 8.82977 18.7565 8.39471 19.9634 9.06491L42.4634 21.5649C43.6702 22.2354 44.1052 23.7565 43.435 24.9634C42.7646 26.1702 41.2435 26.6052 40.0366 25.935L17.5366 13.435C16.3298 12.7646 15.8947 11.2435 16.5649 10.0366Z" fill="url(#paint1_linear_17_716)"/>
<defs>
<linearGradient id="paint0_linear_17_716" x1="-10.9396" y1="33.1189" x2="55.0303" y2="32.2161" gradientUnits="userSpaceOnUse">
<stop stop-color="#4F39F6"/>
<stop offset="1" stop-color="#9514FA"/>
</linearGradient>
<linearGradient id="paint1_linear_17_716" x1="7.48344" y1="18.5057" x2="43.7535" y2="17.6589" gradientUnits="userSpaceOnUse">
<stop stop-color="#4F39F6"/>
<stop offset="1" stop-color="#9514FA"/>
</linearGradient>
</defs>
</svg>
