<svg width="60" height="60" viewBox="0 0 60 60" fill="none" xmlns="http://www.w3.org/2000/svg">
<path d="M15.0074 37.4701C16.7213 37.5232 18.3659 38.1294 19.6998 39.1865L20.2515 39.6674L20.2808 39.6967C23.2509 42.6292 23.2119 47.3328 20.6617 50.3559L20.6641 50.3583C19.5573 51.6759 18.0317 52.6424 16.565 53.3588C15.0696 54.0892 13.4564 54.6458 12.0069 55.0605C10.5499 55.4772 9.20533 55.7659 8.22759 55.9516C7.73694 56.0448 7.33221 56.1141 7.04839 56.1591C6.90744 56.1814 6.79533 56.1965 6.71636 56.2079C6.67674 56.2137 6.64368 56.2194 6.62115 56.2226C6.61034 56.2241 6.60091 56.2241 6.59429 56.225C6.59135 56.2254 6.58904 56.2272 6.58697 56.2275H6.58208C5.80997 56.3307 5.0333 56.0678 4.48247 55.517C3.93211 54.9665 3.6692 54.1915 3.77203 53.4199L6.25005 53.7494L3.77203 53.4174V53.4125C3.77231 53.4104 3.77407 53.4081 3.77447 53.4052C3.77538 53.3985 3.77537 53.3894 3.77691 53.3783C3.78002 53.356 3.78586 53.3247 3.79156 53.2856C3.80307 53.2064 3.82033 53.093 3.84283 52.9511C3.88779 52.6674 3.95482 52.2647 4.0479 51.7743C4.23357 50.7965 4.52209 49.4502 4.93902 47.9926C5.35364 46.5432 5.91034 44.9297 6.64068 43.4345C7.35708 41.9679 8.32372 40.4422 9.64117 39.3354C11.139 38.0743 13.0502 37.4098 15.0074 37.4701ZM55.0147 2.49944C56.3891 2.50797 57.4997 3.62507 57.5 4.99944C57.5 12.0251 55.526 24.2647 42.8663 33.537C43.0795 34.4313 43.3234 35.609 43.4913 36.9111C43.6741 38.3294 43.7773 39.9627 43.628 41.5693C43.4807 43.1543 43.0716 44.8988 42.0801 46.3862L42.0777 46.391C40.3803 48.9277 37.1799 50.3993 34.9439 51.2104C33.7424 51.6462 32.6316 51.9548 31.8238 52.1552C31.4186 52.2557 31.0844 52.3298 30.8472 52.3798C30.7285 52.4048 30.6316 52.4252 30.564 52.4384C30.5308 52.4449 30.5031 52.4494 30.4835 52.4531C30.4739 52.4548 30.4652 52.4568 30.459 52.4579C30.4563 52.4584 30.4537 52.4576 30.4517 52.4579L30.4493 52.4604H30.4468C29.7176 52.5928 28.9675 52.3934 28.3985 51.9184C27.8296 51.4434 27.5001 50.7406 27.5001 49.9994V38.5346L21.4649 32.4994H10.0001C9.25887 32.4994 8.5561 32.17 8.08111 31.601C7.60648 31.0321 7.40679 30.2817 7.53912 29.5527L10.0001 29.9994C7.72861 29.5871 7.55477 29.5556 7.54156 29.5527V29.5405C7.54271 29.5342 7.54461 29.5258 7.54644 29.516C7.55017 29.4962 7.55696 29.4691 7.56353 29.4355C7.5767 29.368 7.59473 29.2731 7.61968 29.1547C7.6697 28.9175 7.74363 28.5815 7.84429 28.1757C8.04464 27.3681 8.35592 26.2591 8.79156 25.058C9.6027 22.8218 11.0736 19.6192 13.6109 17.9218L13.6133 17.9194C15.1007 16.9279 16.8452 16.5188 18.4302 16.3715C20.0369 16.2222 21.67 16.3254 23.0884 16.5082C24.4024 16.6776 25.5896 16.9259 26.4869 17.1406C29.5142 12.8674 33.475 9.3259 38.0787 6.79388C43.2653 3.94146 49.0956 2.46288 55.0147 2.49944ZM14.8536 42.4701C14.127 42.4477 13.4173 42.6928 12.8614 43.1611L12.8589 43.1635C12.3017 43.6316 11.7054 44.4571 11.1329 45.6293C10.5743 46.7729 10.1152 48.088 9.74859 49.3696C9.63082 49.7813 9.52466 50.1843 9.42876 50.5707C9.8154 50.4748 10.2204 50.3712 10.6324 50.2533C11.9136 49.8868 13.2269 49.425 14.3702 48.8666C15.5421 48.2942 16.3678 47.7001 16.836 47.143L16.8409 47.1357C17.8332 45.9613 17.7465 44.228 16.775 43.2612C16.252 42.773 15.5693 42.4923 14.8536 42.4701ZM38.3497 36.374C36.4538 37.4207 34.5013 38.3613 32.5001 39.1913V46.7621C32.74 46.6838 32.9868 46.5991 33.2374 46.5082C35.3949 45.7256 37.1947 44.698 37.9224 43.6103C38.2796 43.0728 38.5443 42.2434 38.65 41.1078C38.7537 39.9911 38.6875 38.751 38.5328 37.5507C38.4803 37.1436 38.4159 36.7491 38.3497 36.374ZM52.3951 7.59954C48.2278 7.93816 44.1689 9.15201 40.4883 11.1762C36.0488 13.6179 32.306 17.154 29.6192 21.4496L29.6045 21.4741C27.9914 23.9937 26.5977 26.646 25.4371 29.4013L30.6031 34.5673C33.3917 33.4095 36.0781 32.0178 38.6329 30.4047C49.1956 23.3102 51.8838 14.0349 52.3951 7.59954ZM18.8941 21.3495C17.756 21.4553 16.9243 21.7213 16.3868 22.0795C15.3002 22.8085 14.2731 24.6066 13.4913 26.7621C13.4004 27.0127 13.3157 27.2595 13.2374 27.4994H20.8155C21.6563 25.4993 22.6087 23.5488 23.6695 21.6572C23.2814 21.588 22.8716 21.5212 22.4488 21.4667C21.249 21.3121 20.0104 21.2459 18.8941 21.3495Z" fill="url(#paint0_linear_17_726)"/>
<defs>
<linearGradient id="paint0_linear_17_726" x1="-13.3849" y1="32.4633" x2="57.5303" y2="31.4097" gradientUnits="userSpaceOnUse">
<stop stop-color="#4F39F6"/>
<stop offset="1" stop-color="#9514FA"/>
</linearGradient>
</defs>
</svg>
